<?xml version="1.0" standalone="no"?>
<!DOCTYPE svg PUBLIC "-//W3C//DTD SVG 20010904//EN"
 "http://www.w3.org/TR/2001/REC-SVG-20010904/DTD/svg10.dtd">
<svg version="1.0" xmlns="http://www.w3.org/2000/svg"
 width="1646.000000pt" height="1793.000000pt" viewBox="0 0 1646.000000 1793.000000"
 preserveAspectRatio="xMidYMid meet">
<metadata>
Created by potrace 1.16, written by Peter Selinger 2001-2019
</metadata>
<g transform="translate(0.000000,1793.000000) scale(0.100000,-0.100000)"
fill="#000000" stroke="none">
<path d="M13138 17909 c-139 -15 -301 -76 -429 -161 -118 -77 -244 -203 -290
-291 l-36 -69 -33 44 c-96 124 -230 232 -388 312 -107 54 -252 87 -392 90
-104 3 -120 1 -162 -20 -26 -13 -57 -24 -68 -24 -28 0 -141 -58 -218 -113 -84
-59 -182 -154 -237 -232 -149 -208 -196 -565 -105 -791 119 -296 203 -427 405
-630 176 -177 288 -265 605 -480 230 -156 511 -311 634 -350 l52 -16 100 50
c114 57 438 272 559 371 270 220 489 444 661 676 93 125 111 156 138 225 13
36 36 92 51 125 15 33 31 80 36 105 4 25 17 79 29 120 18 63 20 90 15 170 -10
143 -36 243 -105 401 -47 109 -108 187 -210 273 -127 106 -248 163 -425 200
-111 24 -112 24 -187 15z"/>
<path d="M8200 15813 c-52 -35 -1017 -761 -1250 -940 -52 -40 -216 -165 -365
-278 -575 -436 -1074 -816 -1254 -955 -54 -41 -182 -140 -285 -220 -104 -80
-261 -201 -350 -270 -88 -69 -173 -134 -187 -145 -15 -11 -94 -72 -175 -136
-82 -63 -291 -225 -464 -359 -345 -266 -433 -334 -835 -646 -148 -115 -282
-218 -297 -229 -83 -62 -959 -745 -1213 -946 -60 -48 -389 -306 -730 -573
-802 -629 -743 -580 -766 -629 -28 -64 -25 -130 12 -207 17 -36 82 -175 144
-310 62 -135 130 -281 150 -325 90 -192 415 -896 490 -1060 185 -402 188 -406
267 -439 46 -20 118 -20 161 -2 18 7 133 86 257 175 343 247 394 281 401 273
4 -4 9 -641 13 -1417 5 -1331 12 -1964 36 -3295 5 -311 17 -1028 26 -1595 9
-566 20 -1047 25 -1067 6 -24 22 -47 45 -64 l36 -28 716 13 c394 7 951 16
1237 21 834 15 1968 10 2905 -15 113 -2 414 -8 670 -11 256 -3 475 -7 487 -9
20 -3 22 0 17 28 -7 41 -75 352 -154 707 -34 151 -88 394 -120 540 -32 146
-81 366 -109 490 -62 277 -181 811 -226 1020 -19 85 -52 236 -75 334 -22 98
-40 180 -40 182 0 12 -273 2 -325 -11 -70 -18 -162 -43 -445 -119 -113 -30
-257 -68 -320 -85 -145 -38 -576 -153 -695 -185 -49 -14 -205 -55 -345 -92
-251 -66 -256 -67 -351 -61 -312 19 -668 192 -1059 515 -98 80 -446 420 -535
522 -125 141 -174 200 -288 342 l-127 158 0 68 0 68 214 285 214 284 909 908
909 908 -72 287 c-78 310 -78 306 -47 467 67 349 355 842 836 1429 147 179
196 236 415 479 l134 148 -11 117 c-33 335 -170 784 -421 1378 -51 120 -51
121 -140 314 -39 85 -85 186 -102 223 l-31 68 69 70 69 69 700 -700 700 -700
73 0 72 0 0 1401 0 1401 137 139 137 139 76 0 75 0 105 -81 c490 -382 861
-836 1149 -1409 119 -236 200 -428 285 -684 31 -91 108 -358 126 -433 13 -59
-9 -40 325 -283 184 -135 318 -233 540 -397 33 -24 107 -79 165 -121 58 -42
236 -172 395 -289 160 -117 359 -263 444 -325 233 -171 247 -183 279 -240 16
-29 73 -132 127 -228 214 -382 464 -796 745 -1235 79 -122 374 -564 418 -625
18 -25 91 -127 162 -227 277 -389 611 -822 929 -1203 151 -181 532 -614 551
-625 6 -4 7 428 3 1145 -4 784 -3 1150 4 1150 6 0 144 -94 308 -210 163 -115
314 -214 334 -220 79 -22 168 0 222 53 30 30 88 143 164 317 18 41 49 109 68
150 19 41 91 199 160 350 69 151 173 381 232 510 110 240 214 469 323 711 51
111 62 146 62 189 0 97 -22 122 -302 340 -137 107 -316 247 -397 310 -80 64
-158 124 -172 135 -26 20 -176 136 -684 535 -403 316 -731 571 -885 688 -19
15 -125 97 -235 182 -110 86 -224 173 -252 195 -29 21 -53 47 -53 56 0 9 7 79
15 155 66 632 118 1473 140 2274 10 328 17 322 -370 331 -497 12 -1711 22
-1808 14 -80 -6 -103 -11 -123 -29 l-26 -21 -1 -512 c-1 -336 -6 -516 -12
-522 -7 -7 -109 65 -325 231 -173 133 -398 305 -500 382 -102 77 -216 164
-255 194 -38 29 -113 86 -165 125 -89 67 -696 529 -930 707 -567 432 -871 660
-879 660 -4 0 -18 -8 -31 -17z"/>
</g>
</svg>
